<svg xmlns="http://www.w3.org/2000/svg" width="900" height="680" viewBox="0 0 900 680" role="img" aria-labelledby="title desc">
  <title id="title">ReGround benchmark comparison</title>
  <desc id="desc">Radar chart comparing Base, R1-VL, Thyme, Look-Back, Qwen-LookAgain, and ReGround on the Qwen2.5-VL-7B backbone across eight benchmarks.</desc>
  <rect x="1" y="1" width="898" height="678" rx="20" fill="#ffffff" stroke="#e2e8f0" stroke-width="2"/>

  <g fill="none" stroke="#dbe2ea" stroke-width="1.4">
    <polygon points="450,258 479.70,270.30 492,300 479.70,329.70 450,342 420.30,329.70 408,300 420.30,270.30"/>
    <polygon points="450,216 509.40,240.60 534,300 509.40,359.40 450,384 390.60,359.40 366,300 390.60,240.60"/>
    <polygon points="450,174 539.10,210.90 576,300 539.10,389.10 450,426 360.90,389.10 324,300 360.90,210.90"/>
    <polygon points="450,132 568.79,181.21 618,300 568.79,418.79 450,468 331.21,418.79 282,300 331.21,181.21"/>
    <polygon points="450,90 598.49,151.51 660,300 598.49,448.49 450,510 301.51,448.49 240,300 301.51,151.51"/>
  </g>

  <g stroke="#cbd5e1" stroke-width="1.3">
    <line x1="450" y1="300" x2="450" y2="90"/>
    <line x1="450" y1="300" x2="598.49" y2="151.51"/>
    <line x1="450" y1="300" x2="660" y2="300"/>
    <line x1="450" y1="300" x2="598.49" y2="448.49"/>
    <line x1="450" y1="300" x2="450" y2="510"/>
    <line x1="450" y1="300" x2="301.51" y2="448.49"/>
    <line x1="450" y1="300" x2="240" y2="300"/>
    <line x1="450" y1="300" x2="301.51" y2="151.51"/>
  </g>

  <g font-family="Inter, ui-sans-serif, -apple-system, BlinkMacSystemFont, 'Segoe UI', sans-serif" fill="#334155" font-size="16" font-weight="600">
    <text x="450" y="53" text-anchor="middle">MathVista</text>
    <text x="625" y="133" text-anchor="start">MathVision</text>
    <text x="686" y="306" text-anchor="start">MathVerse</text>
    <text x="622" y="482" text-anchor="start">MMBench</text>
    <text x="450" y="551" text-anchor="middle">MMStar</text>
    <text x="278" y="482" text-anchor="end">HallusionBench</text>
    <text x="214" y="306" text-anchor="end">VisuLogic</text>
    <text x="278" y="133" text-anchor="end">V*Bench</text>
  </g>

  <g font-family="Inter, ui-sans-serif, -apple-system, BlinkMacSystemFont, 'Segoe UI', sans-serif" fill="#94a3b8" font-size="12">
    <text x="458" y="262">20</text>
    <text x="458" y="220">40</text>
    <text x="458" y="178">60</text>
    <text x="458" y="136">80</text>
    <text x="458" y="94">100</text>
  </g>

  <g fill="none" stroke-linejoin="round" stroke-width="1.8" opacity="0.82">
    <polygon points="450,156.78 490.09,259.91 524.55,300 572.65,422.65 450,435.87 353.93,396.07 408,300 333.88,183.88"
             stroke="#64748b" stroke-dasharray="8 5"/>
    <polygon points="450,162.03 486.68,263.32 528.96,300 573.40,423.40 450,426 347.84,402.16 403.17,300 329.42,179.42"
             stroke="#d97706" stroke-dasharray="2 5"/>
    <polygon points="450,153 490.98,259.02 532.11,300 573.84,423.84 450,438.39 344.57,405.43 400.86,300 326.01,176.01"
             stroke="#059669" stroke-dasharray="10 4 2 4"/>
    <polygon points="450,151.32 492.17,257.83 531.69,300 574.59,424.59 450,440.28 346.35,403.65 400.02,300 327.05,177.05"
             stroke="#0284c7"/>
    <polygon points="450,153.42 489.20,260.80 529.38,300 572.95,422.95 450,438.39 347.24,402.76 402.54,300 329.13,179.13"
             stroke="#db2777" stroke-dasharray="12 5"/>
  </g>

  <polygon points="450,148.80 494.25,255.75 534,300 574.44,424.44 450,441.96 343.83,406.17 400.44,300 326.45,176.45"
           fill="#6366f1" fill-opacity="0.13" stroke="#4f46e5" stroke-width="3.4" stroke-linejoin="round"/>

  <g fill="#4f46e5" stroke="#ffffff" stroke-width="2">
    <circle cx="450" cy="148.80" r="4.5"/>
    <circle cx="494.25" cy="255.75" r="4.5"/>
    <circle cx="534" cy="300" r="4.5"/>
    <circle cx="574.44" cy="424.44" r="4.5"/>
    <circle cx="450" cy="441.96" r="4.5"/>
    <circle cx="343.83" cy="406.17" r="4.5"/>
    <circle cx="400.44" cy="300" r="4.5"/>
    <circle cx="326.45" cy="176.45" r="4.5"/>
  </g>

  <g font-family="Inter, ui-sans-serif, -apple-system, BlinkMacSystemFont, 'Segoe UI', sans-serif" font-size="14" fill="#334155">
    <line x1="115" y1="592" x2="153" y2="592" stroke="#64748b" stroke-width="2" stroke-dasharray="8 5"/>
    <text x="163" y="597">Base</text>

    <line x1="245" y1="592" x2="283" y2="592" stroke="#d97706" stroke-width="2" stroke-dasharray="2 5"/>
    <text x="293" y="597">R1-VL</text>

    <line x1="383" y1="592" x2="421" y2="592" stroke="#059669" stroke-width="2" stroke-dasharray="10 4 2 4"/>
    <text x="431" y="597">Thyme</text>

    <line x1="535" y1="592" x2="573" y2="592" stroke="#0284c7" stroke-width="2"/>
    <text x="583" y="597">Look-Back</text>

    <line x1="222" y1="636" x2="260" y2="636" stroke="#db2777" stroke-width="2" stroke-dasharray="12 5"/>
    <text x="270" y="641">Qwen-LookAgain</text>

    <line x1="489" y1="636" x2="527" y2="636" stroke="#4f46e5" stroke-width="3.4"/>
    <circle cx="508" cy="636" r="4" fill="#4f46e5" stroke="#ffffff" stroke-width="1.5"/>
    <text x="537" y="641" font-weight="700">ReGround</text>
  </g>
</svg>
